<svg id="svg" fill="#073B3A	" stroke="#63db61" width="40" height="40" version="1.1" viewBox="144 144 512 512" xmlns="http://www.w3.org/2000/svg">
    <g id="IconSvg_bgCarrier" stroke-width="0"></g>
    <g id="IconSvg_tracerCarrier" stroke-linecap="round" stroke-linejoin="round" stroke="#CCCCCC" stroke-width="0">
      <g xmlns="http://www.w3.org/2000/svg">
  <path d="m313.41 254.37h173.18c4.3398 0 7.8711-3.5312 7.8711-7.8711l-188.93-0.003906c0 4.3438 3.5312 7.875 7.8711 7.875z"></path>
  <path d="m494.46 199.26c0-4.3398-3.5312-7.8711-7.8711-7.8711h-31.488c-2.1758 0-3.9375-1.7617-3.9375-3.9375l0.003907-3.9336c0-13.023-10.594-23.617-23.617-23.617h-55.105c-13.023 0-23.617 10.594-23.617 23.617v3.9375c0 2.1719-1.7578 3.9375-3.9375 3.9375h-31.488c-4.3398 0-7.8711 3.5312-7.8711 7.8711v39.359h188.93zm-70.848-11.809h-47.23c-4.3281 0-7.8711-3.543-7.8711-7.8711s3.543-7.8711 7.8711-7.8711h47.23c4.3281 0 7.8711 3.543 7.8711 7.8711 0.003906 4.3281-3.5391 7.8711-7.8711 7.8711z"></path>
  <path d="m297.66 238.62h-23.617v373.92h251.91l-0.003906-373.92h-23.617v7.8711c0 8.6836-7.0625 15.742-15.742 15.742l-173.18 0.003906c-8.6836 0-15.742-7.0625-15.742-15.742zm208.61 330.62h-212.54c-2.1758 0-3.9375-1.7617-3.9375-3.9375 0-2.1719 1.7578-3.9375 3.9375-3.9375h212.54c2.1758 0 3.9375 1.7617 3.9375 3.9375 0 2.1758-1.7578 3.9375-3.9375 3.9375zm0-27.551h-212.54c-2.1758 0-3.9375-1.7617-3.9375-3.9375 0-2.1719 1.7578-3.9375 3.9375-3.9375h212.54c2.1758 0 3.9375 1.7617 3.9375 3.9375 0 2.1719-1.7578 3.9375-3.9375 3.9375zm0-27.551h-212.54c-2.1758 0-3.9375-1.7617-3.9375-3.9375 0-2.1719 1.7578-3.9375 3.9375-3.9375h212.54c2.1758 0 3.9375 1.7617 3.9375 3.9375 0 2.1719-1.7578 3.9375-3.9375 3.9375zm0-27.555h-212.54c-2.1758 0-3.9375-1.7617-3.9375-3.9375 0-2.1719 1.7578-3.9375 3.9375-3.9375h212.54c2.1758 0 3.9375 1.7617 3.9375 3.9375 0 2.1758-1.7578 3.9375-3.9375 3.9375zm0-27.551h-212.54c-2.1758 0-3.9375-1.7617-3.9375-3.9375 0-2.1719 1.7578-3.9375 3.9375-3.9375h212.54c2.1758 0 3.9375 1.7617 3.9375 3.9375 0 2.1719-1.7578 3.9375-3.9375 3.9375zm0-27.551h-212.54c-2.1758 0-3.9375-1.7617-3.9375-3.9375 0-2.1719 1.7578-3.9375 3.9375-3.9375h212.54c2.1758 0 3.9375 1.7617 3.9375 3.9375 0 2.1719-1.7578 3.9375-3.9375 3.9375zm0-27.555h-212.54c-2.1758 0-3.9375-1.7617-3.9375-3.9375 0-2.1719 1.7578-3.9375 3.9375-3.9375h212.54c2.1758 0 3.9375 1.7617 3.9375 3.9375 0 2.1758-1.7578 3.9375-3.9375 3.9375zm0-27.551h-212.54c-2.1758 0-3.9375-1.7617-3.9375-3.9375 0-2.1719 1.7578-3.9375 3.9375-3.9375h212.54c2.1758 0 3.9375 1.7617 3.9375 3.9375 0 2.1719-1.7578 3.9375-3.9375 3.9375zm0-27.551h-212.54c-2.1758 0-3.9375-1.7617-3.9375-3.9375 0-2.1719 1.7578-3.9375 3.9375-3.9375h212.54c2.1758 0 3.9375 1.7617 3.9375 3.9375 0 2.1719-1.7578 3.9375-3.9375 3.9375zm0-27.555h-212.54c-2.1758 0-3.9375-1.7617-3.9375-3.9375 0-2.1719 1.7578-3.9375 3.9375-3.9375h212.54c2.1758 0 3.9375 1.7617 3.9375 3.9375 0 2.1758-1.7578 3.9375-3.9375 3.9375zm0-35.422c2.1758 0 3.9375 1.7617 3.9375 3.9375 0 2.1719-1.7578 3.9375-3.9375 3.9375l-212.54-0.003907c-2.1758 0-3.9375-1.7617-3.9375-3.9375 0-2.1719 1.7578-3.9375 3.9375-3.9375z"></path>
  <path d="m529.64 215.01h-27.309v15.742h27.551c2.1758 0 3.9375 1.7617 3.9375 3.9375v381.79c0 2.1719-1.7578 3.9375-3.9375 3.9375l-259.78-0.003907c-2.1758 0-3.9375-1.7617-3.9375-3.9375l0.003906-381.79c0-2.1719 1.7578-3.9375 3.9375-3.9375h27.551v-15.742h-27.309c-15.328 0-27.797 12.469-27.797 27.793v369.49c0 15.328 12.469 27.797 27.797 27.797h259.29c15.332 0 27.797-12.469 27.797-27.797l-0.003906-369.49c0.003906-15.324-12.465-27.793-27.789-27.793z"></path>
 </g>

      </g>
     <g id="IconSvg_iconCarrier">
      <g xmlns="http://www.w3.org/2000/svg">
  <path d="m313.41 254.37h173.18c4.3398 0 7.8711-3.5312 7.8711-7.8711l-188.93-0.003906c0 4.3438 3.5312 7.875 7.8711 7.875z"></path>
  <path d="m494.46 199.26c0-4.3398-3.5312-7.8711-7.8711-7.8711h-31.488c-2.1758 0-3.9375-1.7617-3.9375-3.9375l0.003907-3.9336c0-13.023-10.594-23.617-23.617-23.617h-55.105c-13.023 0-23.617 10.594-23.617 23.617v3.9375c0 2.1719-1.7578 3.9375-3.9375 3.9375h-31.488c-4.3398 0-7.8711 3.5312-7.8711 7.8711v39.359h188.93zm-70.848-11.809h-47.23c-4.3281 0-7.8711-3.543-7.8711-7.8711s3.543-7.8711 7.8711-7.8711h47.23c4.3281 0 7.8711 3.543 7.8711 7.8711 0.003906 4.3281-3.5391 7.8711-7.8711 7.8711z"></path>
  <path d="m297.66 238.62h-23.617v373.92h251.91l-0.003906-373.92h-23.617v7.8711c0 8.6836-7.0625 15.742-15.742 15.742l-173.18 0.003906c-8.6836 0-15.742-7.0625-15.742-15.742zm208.61 330.62h-212.54c-2.1758 0-3.9375-1.7617-3.9375-3.9375 0-2.1719 1.7578-3.9375 3.9375-3.9375h212.54c2.1758 0 3.9375 1.7617 3.9375 3.9375 0 2.1758-1.7578 3.9375-3.9375 3.9375zm0-27.551h-212.54c-2.1758 0-3.9375-1.7617-3.9375-3.9375 0-2.1719 1.7578-3.9375 3.9375-3.9375h212.54c2.1758 0 3.9375 1.7617 3.9375 3.9375 0 2.1719-1.7578 3.9375-3.9375 3.9375zm0-27.551h-212.54c-2.1758 0-3.9375-1.7617-3.9375-3.9375 0-2.1719 1.7578-3.9375 3.9375-3.9375h212.54c2.1758 0 3.9375 1.7617 3.9375 3.9375 0 2.1719-1.7578 3.9375-3.9375 3.9375zm0-27.555h-212.54c-2.1758 0-3.9375-1.7617-3.9375-3.9375 0-2.1719 1.7578-3.9375 3.9375-3.9375h212.54c2.1758 0 3.9375 1.7617 3.9375 3.9375 0 2.1758-1.7578 3.9375-3.9375 3.9375zm0-27.551h-212.54c-2.1758 0-3.9375-1.7617-3.9375-3.9375 0-2.1719 1.7578-3.9375 3.9375-3.9375h212.54c2.1758 0 3.9375 1.7617 3.9375 3.9375 0 2.1719-1.7578 3.9375-3.9375 3.9375zm0-27.551h-212.54c-2.1758 0-3.9375-1.7617-3.9375-3.9375 0-2.1719 1.7578-3.9375 3.9375-3.9375h212.54c2.1758 0 3.9375 1.7617 3.9375 3.9375 0 2.1719-1.7578 3.9375-3.9375 3.9375zm0-27.555h-212.54c-2.1758 0-3.9375-1.7617-3.9375-3.9375 0-2.1719 1.7578-3.9375 3.9375-3.9375h212.54c2.1758 0 3.9375 1.7617 3.9375 3.9375 0 2.1758-1.7578 3.9375-3.9375 3.9375zm0-27.551h-212.54c-2.1758 0-3.9375-1.7617-3.9375-3.9375 0-2.1719 1.7578-3.9375 3.9375-3.9375h212.54c2.1758 0 3.9375 1.7617 3.9375 3.9375 0 2.1719-1.7578 3.9375-3.9375 3.9375zm0-27.551h-212.54c-2.1758 0-3.9375-1.7617-3.9375-3.9375 0-2.1719 1.7578-3.9375 3.9375-3.9375h212.54c2.1758 0 3.9375 1.7617 3.9375 3.9375 0 2.1719-1.7578 3.9375-3.9375 3.9375zm0-27.555h-212.54c-2.1758 0-3.9375-1.7617-3.9375-3.9375 0-2.1719 1.7578-3.9375 3.9375-3.9375h212.54c2.1758 0 3.9375 1.7617 3.9375 3.9375 0 2.1758-1.7578 3.9375-3.9375 3.9375zm0-35.422c2.1758 0 3.9375 1.7617 3.9375 3.9375 0 2.1719-1.7578 3.9375-3.9375 3.9375l-212.54-0.003907c-2.1758 0-3.9375-1.7617-3.9375-3.9375 0-2.1719 1.7578-3.9375 3.9375-3.9375z"></path>
  <path d="m529.64 215.01h-27.309v15.742h27.551c2.1758 0 3.9375 1.7617 3.9375 3.9375v381.79c0 2.1719-1.7578 3.9375-3.9375 3.9375l-259.78-0.003907c-2.1758 0-3.9375-1.7617-3.9375-3.9375l0.003906-381.79c0-2.1719 1.7578-3.9375 3.9375-3.9375h27.551v-15.742h-27.309c-15.328 0-27.797 12.469-27.797 27.793v369.49c0 15.328 12.469 27.797 27.797 27.797h259.29c15.332 0 27.797-12.469 27.797-27.797l-0.003906-369.49c0.003906-15.324-12.465-27.793-27.789-27.793z"></path>
 </g>

      </g>
      </svg>