<svg id="svg" fill="#073B3A" stroke="#073B3A" width="26" height="36" version="1.1" viewBox="144 144 512 512" xmlns="http://www.w3.org/2000/svg" stroke-width="0">
    <g id="IconSvg_bgCarrier" stroke-width="0"></g>
    <g id="IconSvg_tracerCarrier" stroke-linecap="round" stroke-linejoin="round" stroke="#CCCCCC" stroke-width="0">
      <path xmlns="http://www.w3.org/2000/svg" d="m473.66 537.05v-201.65c-0.066406-3.1055 1.1211-6.1133 3.2969-8.332 2.1719-2.2227 5.1523-3.4766 8.2617-3.4766s6.0859 1.2539 8.2617 3.4766c2.1758 2.2188 3.3633 5.2266 3.2969 8.332v201.65c0.066406 3.1094-1.1211 6.1133-3.2969 8.3359-2.1758 2.2188-5.1523 3.4727-8.2617 3.4727s-6.0898-1.2539-8.2617-3.4727c-2.1758-2.2227-3.3633-5.2266-3.2969-8.3359zm-86.363 0v-201.65c-0.066407-3.1055 1.1211-6.1133 3.2969-8.332 2.1719-2.2227 5.1523-3.4766 8.2617-3.4766 3.1094 0 6.0859 1.2539 8.2617 3.4766 2.1758 2.2188 3.3633 5.2266 3.2969 8.332v201.65c0.066406 3.1094-1.1211 6.1133-3.2969 8.3359-2.1758 2.2188-5.1523 3.4727-8.2617 3.4727-3.1094 0-6.0898-1.2539-8.2617-3.4727-2.1758-2.2227-3.3633-5.2266-3.2969-8.3359zm-86.375 0v-201.65c-0.066407-3.1055 1.1211-6.1133 3.2969-8.332 2.1758-2.2227 5.1523-3.4766 8.2617-3.4766 3.1094 0 6.0859 1.2539 8.2617 3.4766 2.1758 2.2188 3.3633 5.2266 3.2969 8.332v201.65c0.066406 3.1094-1.1211 6.1133-3.2969 8.3359-2.1758 2.2188-5.1523 3.4727-8.2617 3.4727-3.1094 0-6.0859-1.2539-8.2617-3.4727-2.1758-2.2227-3.3633-5.2266-3.2969-8.3359zm53.211-352.36c0.054688-4.4883 3.6758-8.1172 8.1641-8.1719h75.418c4.5078 0.003906 8.1602 3.6641 8.1562 8.1719v30.004h-91.746v-30.004zm205.9 391.05v-337.93h-322.36v337.93c0.019531 12.648 5.0547 24.777 14.004 33.727 8.9453 8.9453 21.074 13.98 33.727 14h226.88c12.652-0.019532 24.781-5.0547 33.727-14 8.9492-8.9492 13.984-21.078 14.004-33.727zm-372.31-337.93h26.828l0.003906 337.93c0.019531 18.793 7.5 36.809 20.789 50.094 13.293 13.289 31.316 20.758 50.109 20.773h226.83c18.789-0.023437 36.805-7.4961 50.09-20.781 13.289-13.285 20.762-31.297 20.785-50.086v-337.93h29.129c6.3867 0 11.562-5.1758 11.562-11.562 0-6.3828-5.1758-11.562-11.562-11.562h-143.29v-29.992c0-8.3008-3.2969-16.258-9.1641-22.125-5.8672-5.8672-13.828-9.1641-22.125-9.1641h-75.406c-8.3008 0-16.258 3.2969-22.125 9.1641-5.8672 5.8672-9.1641 13.824-9.1641 22.125v30.004h-143.29c-6.3828 0-11.559 5.1758-11.559 11.562 0 6.3828 5.1758 11.559 11.559 11.559z" fill-rule="evenodd"></path>

      </g>
     <g id="IconSvg_iconCarrier">
      <path xmlns="http://www.w3.org/2000/svg" d="m473.66 537.05v-201.65c-0.066406-3.1055 1.1211-6.1133 3.2969-8.332 2.1719-2.2227 5.1523-3.4766 8.2617-3.4766s6.0859 1.2539 8.2617 3.4766c2.1758 2.2188 3.3633 5.2266 3.2969 8.332v201.65c0.066406 3.1094-1.1211 6.1133-3.2969 8.3359-2.1758 2.2188-5.1523 3.4727-8.2617 3.4727s-6.0898-1.2539-8.2617-3.4727c-2.1758-2.2227-3.3633-5.2266-3.2969-8.3359zm-86.363 0v-201.65c-0.066407-3.1055 1.1211-6.1133 3.2969-8.332 2.1719-2.2227 5.1523-3.4766 8.2617-3.4766 3.1094 0 6.0859 1.2539 8.2617 3.4766 2.1758 2.2188 3.3633 5.2266 3.2969 8.332v201.65c0.066406 3.1094-1.1211 6.1133-3.2969 8.3359-2.1758 2.2188-5.1523 3.4727-8.2617 3.4727-3.1094 0-6.0898-1.2539-8.2617-3.4727-2.1758-2.2227-3.3633-5.2266-3.2969-8.3359zm-86.375 0v-201.65c-0.066407-3.1055 1.1211-6.1133 3.2969-8.332 2.1758-2.2227 5.1523-3.4766 8.2617-3.4766 3.1094 0 6.0859 1.2539 8.2617 3.4766 2.1758 2.2188 3.3633 5.2266 3.2969 8.332v201.65c0.066406 3.1094-1.1211 6.1133-3.2969 8.3359-2.1758 2.2188-5.1523 3.4727-8.2617 3.4727-3.1094 0-6.0859-1.2539-8.2617-3.4727-2.1758-2.2227-3.3633-5.2266-3.2969-8.3359zm53.211-352.36c0.054688-4.4883 3.6758-8.1172 8.1641-8.1719h75.418c4.5078 0.003906 8.1602 3.6641 8.1562 8.1719v30.004h-91.746v-30.004zm205.9 391.05v-337.93h-322.36v337.93c0.019531 12.648 5.0547 24.777 14.004 33.727 8.9453 8.9453 21.074 13.98 33.727 14h226.88c12.652-0.019532 24.781-5.0547 33.727-14 8.9492-8.9492 13.984-21.078 14.004-33.727zm-372.31-337.93h26.828l0.003906 337.93c0.019531 18.793 7.5 36.809 20.789 50.094 13.293 13.289 31.316 20.758 50.109 20.773h226.83c18.789-0.023437 36.805-7.4961 50.09-20.781 13.289-13.285 20.762-31.297 20.785-50.086v-337.93h29.129c6.3867 0 11.562-5.1758 11.562-11.562 0-6.3828-5.1758-11.562-11.562-11.562h-143.29v-29.992c0-8.3008-3.2969-16.258-9.1641-22.125-5.8672-5.8672-13.828-9.1641-22.125-9.1641h-75.406c-8.3008 0-16.258 3.2969-22.125 9.1641-5.8672 5.8672-9.1641 13.824-9.1641 22.125v30.004h-143.29c-6.3828 0-11.559 5.1758-11.559 11.562 0 6.3828 5.1758 11.559 11.559 11.559z" fill-rule="evenodd"></path>

      </g>
      </svg>