<svg id="svg" fill="#073B3A" stroke="#073B3A" width="45" height="45" version="1.1" viewBox="144 144 512 512" xmlns="http://www.w3.org/2000/svg">
    <g id="IconSvg_bgCarrier" stroke-width="0"></g>
    <g id="IconSvg_tracerCarrier" stroke-linecap="round" stroke-linejoin="round" stroke="#CCCCCC" stroke-width="0">
      <g xmlns="http://www.w3.org/2000/svg">
  <path d="m249.86 495.22c-3.0234-3.0234-8.0625-1.5117-9.0703 3.0234l-7.0508 57.938c0.50391 5.543 4.5352 10.078 10.078 10.078l57.938-7.0547c4.5352-0.50391 6.0469-5.543 3.0234-9.0703z"></path>
  <path d="m561.72 289.66-51.391-51.387c-6.0469-6.0469-16.121-6.0469-22.168 0l-226.71 226.71c-3.0234 3.0234-4.5352 7.0547-4.5352 11.082 0 4.0312 1.5117 8.0625 4.5352 11.082l51.387 51.387c3.0234 3.0234 7.0547 4.5352 11.082 4.5352 4.0312 0 8.0625-1.5117 11.082-4.5352l226.71-226.71c6.0508-6.043 6.0508-16.117 0.007812-22.164zm-285.16 189.94c-2.0156-2.0156-2.0156-5.543 0-7.5586l219.16-218.65c2.0156-2.0156 5.543-2.0156 7.5586 0l2.0156 2.0156c2.0156 2.0156 2.0156 5.0391 0 7.0547l-220.17 219.16c-2.0156 2.0156-5.0391 2.0156-7.0547 0zm270.04-174.82-218.65 218.66c-2.0156 2.0156-5.543 2.0156-7.5586 0l-23.68-23.68c-2.0156-2.0156-2.0156-5.0391 0-7.0547l219.16-219.16c2.0156-2.0156 5.0391-2.0156 7.0547 0l23.68 23.68c2.0117 2.0156 2.0117 5.5391-0.003906 7.5547z"></path>
 </g>

      </g>
     <g id="IconSvg_iconCarrier">
      <g xmlns="http://www.w3.org/2000/svg">
  <path d="m249.86 495.22c-3.0234-3.0234-8.0625-1.5117-9.0703 3.0234l-7.0508 57.938c0.50391 5.543 4.5352 10.078 10.078 10.078l57.938-7.0547c4.5352-0.50391 6.0469-5.543 3.0234-9.0703z"></path>
  <path d="m561.72 289.66-51.391-51.387c-6.0469-6.0469-16.121-6.0469-22.168 0l-226.71 226.71c-3.0234 3.0234-4.5352 7.0547-4.5352 11.082 0 4.0312 1.5117 8.0625 4.5352 11.082l51.387 51.387c3.0234 3.0234 7.0547 4.5352 11.082 4.5352 4.0312 0 8.0625-1.5117 11.082-4.5352l226.71-226.71c6.0508-6.043 6.0508-16.117 0.007812-22.164zm-285.16 189.94c-2.0156-2.0156-2.0156-5.543 0-7.5586l219.16-218.65c2.0156-2.0156 5.543-2.0156 7.5586 0l2.0156 2.0156c2.0156 2.0156 2.0156 5.0391 0 7.0547l-220.17 219.16c-2.0156 2.0156-5.0391 2.0156-7.0547 0zm270.04-174.82-218.65 218.66c-2.0156 2.0156-5.543 2.0156-7.5586 0l-23.68-23.68c-2.0156-2.0156-2.0156-5.0391 0-7.0547l219.16-219.16c2.0156-2.0156 5.0391-2.0156 7.0547 0l23.68 23.68c2.0117 2.0156 2.0117 5.5391-0.003906 7.5547z"></path>
 </g>

      </g>
      </svg>